<mxfile host="app.diagrams.net" modified="2023-09-19T11:50:16.666Z" agent="Mozilla/5.0 (Windows NT 10.0; Win64; x64) AppleWebKit/537.36 (KHTML, like Gecko) Chrome/116.0.0.0 Safari/537.36" etag="8LbdM338Ih9vIERLLpEd" version="21.7.5" type="device">
  <diagram name="Strona-1" id="XvXnmrTiQ2hvm_CHZ06q">
    <mxGraphModel dx="1434" dy="910" grid="1" gridSize="10" guides="1" tooltips="1" connect="1" arrows="1" fold="1" page="1" pageScale="1" pageWidth="827" pageHeight="1169" math="0" shadow="0">
      <root>
        <mxCell id="0" />
        <mxCell id="1" parent="0" />
        <mxCell id="5QOAH6gugXDuRe_8VjGW-9" style="edgeStyle=orthogonalEdgeStyle;rounded=0;orthogonalLoop=1;jettySize=auto;html=1;entryX=0.5;entryY=0;entryDx=0;entryDy=0;" edge="1" parent="1" source="5QOAH6gugXDuRe_8VjGW-7" target="5QOAH6gugXDuRe_8VjGW-8">
          <mxGeometry relative="1" as="geometry" />
        </mxCell>
        <mxCell id="5QOAH6gugXDuRe_8VjGW-7" value="start&lt;br&gt;" style="ellipse;whiteSpace=wrap;html=1;" vertex="1" parent="1">
          <mxGeometry x="380" y="90" width="120" height="80" as="geometry" />
        </mxCell>
        <mxCell id="5QOAH6gugXDuRe_8VjGW-14" style="edgeStyle=orthogonalEdgeStyle;rounded=0;orthogonalLoop=1;jettySize=auto;html=1;entryX=0.5;entryY=0;entryDx=0;entryDy=0;" edge="1" parent="1" source="5QOAH6gugXDuRe_8VjGW-8" target="5QOAH6gugXDuRe_8VjGW-13">
          <mxGeometry relative="1" as="geometry" />
        </mxCell>
        <mxCell id="5QOAH6gugXDuRe_8VjGW-8" value="pobierz zmienną&amp;nbsp;&lt;br&gt;a" style="shape=parallelogram;perimeter=parallelogramPerimeter;whiteSpace=wrap;html=1;fixedSize=1;" vertex="1" parent="1">
          <mxGeometry x="380" y="260" width="120" height="60" as="geometry" />
        </mxCell>
        <mxCell id="5QOAH6gugXDuRe_8VjGW-16" style="edgeStyle=orthogonalEdgeStyle;rounded=0;orthogonalLoop=1;jettySize=auto;html=1;" edge="1" parent="1" source="5QOAH6gugXDuRe_8VjGW-13" target="5QOAH6gugXDuRe_8VjGW-15">
          <mxGeometry relative="1" as="geometry" />
        </mxCell>
        <mxCell id="5QOAH6gugXDuRe_8VjGW-13" value="pobierz zmienną&lt;br&gt;b" style="shape=parallelogram;perimeter=parallelogramPerimeter;whiteSpace=wrap;html=1;fixedSize=1;" vertex="1" parent="1">
          <mxGeometry x="380" y="380" width="120" height="60" as="geometry" />
        </mxCell>
        <mxCell id="5QOAH6gugXDuRe_8VjGW-19" style="edgeStyle=orthogonalEdgeStyle;rounded=0;orthogonalLoop=1;jettySize=auto;html=1;exitX=0;exitY=0.5;exitDx=0;exitDy=0;" edge="1" parent="1" source="5QOAH6gugXDuRe_8VjGW-15" target="5QOAH6gugXDuRe_8VjGW-18">
          <mxGeometry relative="1" as="geometry" />
        </mxCell>
        <mxCell id="5QOAH6gugXDuRe_8VjGW-20" style="edgeStyle=orthogonalEdgeStyle;rounded=0;orthogonalLoop=1;jettySize=auto;html=1;exitX=1;exitY=0.5;exitDx=0;exitDy=0;entryX=0;entryY=0.5;entryDx=0;entryDy=0;" edge="1" parent="1" source="5QOAH6gugXDuRe_8VjGW-15" target="5QOAH6gugXDuRe_8VjGW-17">
          <mxGeometry relative="1" as="geometry" />
        </mxCell>
        <mxCell id="5QOAH6gugXDuRe_8VjGW-22" style="edgeStyle=orthogonalEdgeStyle;rounded=0;orthogonalLoop=1;jettySize=auto;html=1;exitX=0.5;exitY=1;exitDx=0;exitDy=0;" edge="1" parent="1" source="5QOAH6gugXDuRe_8VjGW-15" target="5QOAH6gugXDuRe_8VjGW-21">
          <mxGeometry relative="1" as="geometry" />
        </mxCell>
        <mxCell id="5QOAH6gugXDuRe_8VjGW-15" value="jeżeli a" style="rhombus;whiteSpace=wrap;html=1;" vertex="1" parent="1">
          <mxGeometry x="400" y="480" width="80" height="80" as="geometry" />
        </mxCell>
        <mxCell id="5QOAH6gugXDuRe_8VjGW-17" value="a&amp;gt;b" style="rounded=0;whiteSpace=wrap;html=1;" vertex="1" parent="1">
          <mxGeometry x="570" y="490" width="120" height="60" as="geometry" />
        </mxCell>
        <mxCell id="5QOAH6gugXDuRe_8VjGW-18" value="a&amp;lt;b" style="rounded=0;whiteSpace=wrap;html=1;" vertex="1" parent="1">
          <mxGeometry x="210" y="490" width="120" height="60" as="geometry" />
        </mxCell>
        <mxCell id="5QOAH6gugXDuRe_8VjGW-24" style="edgeStyle=orthogonalEdgeStyle;rounded=0;orthogonalLoop=1;jettySize=auto;html=1;entryX=0.5;entryY=0;entryDx=0;entryDy=0;" edge="1" parent="1" source="5QOAH6gugXDuRe_8VjGW-21" target="5QOAH6gugXDuRe_8VjGW-23">
          <mxGeometry relative="1" as="geometry" />
        </mxCell>
        <mxCell id="5QOAH6gugXDuRe_8VjGW-21" value="wyświetl wynik&amp;nbsp;&lt;br&gt;odejmowania" style="shape=parallelogram;perimeter=parallelogramPerimeter;whiteSpace=wrap;html=1;fixedSize=1;" vertex="1" parent="1">
          <mxGeometry x="380" y="640" width="120" height="60" as="geometry" />
        </mxCell>
        <mxCell id="5QOAH6gugXDuRe_8VjGW-23" value="koniec" style="ellipse;whiteSpace=wrap;html=1;" vertex="1" parent="1">
          <mxGeometry x="380" y="770" width="120" height="80" as="geometry" />
        </mxCell>
      </root>
    </mxGraphModel>
  </diagram>
</mxfile>
